<?xml version="1.0" encoding="UTF-8"?><svg id="shape" xmlns="http://www.w3.org/2000/svg" viewBox="0 0 390 844"><path d="M220.35,252.57h-19.59c-13.93,0-27.87,0-41.8,0-13.19,0-26.37,0-39.56,0h-10.99c-.66,0-1.32-.02-1.98,0-5.45,.13-9.7,4.32-9.85,9.78-.09,3.27,0,6.56,0,9.84,0,8.59,0,17.19,0,25.78s0,24.66,0,37c0,14.42,0,28.84,0,43.26s0,29.75,0,44.62,0,27.39,0,41.09c0,10.86,0,21.72,0,32.59s0,12.95,0,19.42c0,1.05-.02,2.1,0,3.14,.1,4.42,2.97,8.44,7.36,9.53,3.4,.84,6.69-.18,9.27-2.49s4.88-4.54,7.32-6.8l17.29-16.06,24.96-23.19,29.85-27.73,32.59-30.28,32.46-30.16,30.13-27.99,25.21-23.42,17.79-16.53c2.63-2.44,5.27-4.86,7.88-7.32,1.43-1.34,2.53-3.06,2.95-5,1.32-6.01-3.08-11.63-9.16-12.01-1.21-.07-2.43-.03-3.63-.04l-23.74-.2-38.58-.32-44.63-.38-40.97-.34-28.56-.24-6.61-.06c-.3,0-.61-.01-.91,0-5.47,.1-9.7,4.4-9.83,9.85-.16,6.78,0,13.59,0,20.37,0,13.83,0,27.65,0,41.48v41.07c0,6.23-.15,12.48,0,18.72s5.6,10.65,11.66,9.6c2.19-.38,3.97-1.64,5.52-3.16l7.09-6.94,28.56-27.98,27.35-26.79c1.9-1.86,3.8-3.71,5.69-5.57,5.13-5.07,7.65-11.74,7.78-18.88l.51-29.83,.72-42.53,.21-12.59c.01-.77,.04-1.55,.04-2.33-.03-5.52-4.29-9.8-9.78-9.97-2.12-.07-3.93,1.85-3.93,3.93,0,2.19,1.8,3.86,3.93,3.93,1.16,.04-.69,.13,.41,.04,.39-.03,.44,.12,.07-.04,.32,.13,.64,.32,.91,.53-.57-.42-.07-.05,0,.06,.59,.87-.48-.47,.24,.31,.35,.38,.18,.31,.06,.01,.13,.33,.23,.69,.28,1.04-.1-.73-.04-.08-.06,.06-.01,.17,0,.34,0,.5-.02,1.13-.04,2.27-.06,3.4l-.25,14.64-.72,42.39c-.15,9-.28,17.99-.46,26.99-.01,.6-.03,1.2-.08,1.79-.01,.14-.12,1.03-.04,.43-.05,.35-.12,.69-.19,1.04-.13,.62-.28,1.23-.46,1.84-.49,1.65-.76,2.23-1.59,3.68-.99,1.72-1.62,2.5-3.05,3.92-.17,.17-.35,.34-.52,.51l-6.99,6.84-28.05,27.48-27.35,26.79c-2.04,1.99-4.06,4-6.11,5.98-.17,.17-.83,.69-.2,.26-.17,.12-.36,.21-.53,.34-.71,.51,.66-.09-.17,.08-.18,.04-.39,.09-.57,.14,.96-.26,.17-.07-.11-.04-.64,.07,0,.03,.19,.07-.28-.05-.56-.14-.84-.2-.64-.14,0,0,.14,.08-.21-.12-1.2-.81-.41-.15-.15-.12-.29-.25-.43-.39-.21-.21-.54-.87-.12-.1-.09-.17-.2-.35-.3-.51-.49-.8,.21,.74-.04-.19-.05-.19-.12-.73-.03,.11-.03-.29-.03-.37-.03-.66,0,0,0-.02,0-.03,0-.18,0-.35,0-.53v-23.05c0-13.93,0-27.86,0-41.78s0-26.49,0-39.74c0-4.15,0-8.3,0-12.45v-3.25c0-.25,0-.5,0-.74,0-.04,0-.08,0-.12-.02-.38,.07-.59-.04-.06,.05-.24,.11-.46,.18-.69-.2,.72,.23-.42,.38-.63-.14,.19-.43,.39,.06,0,.76-.61-.3,.51,.3-.24,.06-.08,.72-.36,0-.07,.32-.13,.69-.23,1.03-.29-.44,.07-.28,.04,.09,.05,.13,0,.26,0,.39,0,.67,0,1.35,.01,2.02,.02l8.41,.07,30.53,.26,41.49,.35,43.64,.37,36.98,.31,21.52,.18c.65,0,1.3,0,1.94,.02,.11,0,.23,0,.34,0,0,0,.01,0,.02,0,.1,0,5.49,0,.33,.01-.94,0-.05,.03,.19,.06,.19,.03,.7,.29-.1-.09,.22,.1,.42,.23,.64,.34,.3,.15,.55,.58,0-.02,.19,.21,.4,.4,.59,.61-.78-.86,.36,1.05-.02-.06,.09,.26,.16,.53,.25,.8,.21,.63,0-.06,0-.22,0,.28,.01,.56,.02,.84,.02,.69-.01-.07,.03-.2-.09,.27-.16,.56-.24,.83,.22-.84,.01-.15-.13,.12-.4,.77,.53-.4-.16,.18l-.23,.23h0s-.04,.04-.06,.06c-.23,.22-.46,.43-.69,.64l-9.64,8.96-18.92,17.58-25.7,23.88-30.14,28.01-32.2,29.92-31.87,29.61-29.15,27.09-24.05,22.35-16.6,15.43c-2.22,2.06-4.47,4.1-6.67,6.19l-.03,.03c-.77,.74,.29-.38-.12,.09-.14,.16-.89,.43-.03,.1-.28,.11-.58,.17-.87,.26,.86-.28,.23-.02-.13-.01-.2,0-.39-.02-.58-.03,1.24,.07-.97-.51,.04,0-.26-.13-.5-.28-.76-.42-.59-.33,0-.02,.1,.09-.2-.21-.41-.41-.61-.63,.61,.66,.08,.01-.04-.19-.45-.72,.06,.67-.05-.2-.03-.21-.1-.41-.14-.62,.12,.79,.05,.28,.06,.05,0-.02,0-.05,0-.07,0-.12,0-.25,0-.37,0-1.47,0-2.95,0-4.42,0-7.01,0-14.02,0-21.03s0-22.25,0-33.38v-41.05c0-14.68,0-29.36,0-44.04,0-14.12,0-28.23,0-42.35s0-24.05,0-36.07v-33.46c0-.14,0-.29,0-.43,0-.03,0-.06,0-.1,0,0,0-.01,0-.02h0c0-.13,0-.25,.01-.37-.08,.44-.07,.43,.03-.03-.02-.07,.26-.8-.04-.06,.13-.32,.32-.63,.52-.91-.1,.15-.46,.51,.05,0,.69-.69-.59,.2,.29-.24,.21-.11,.4-.24,.61-.33-.8,.33,.3-.01,.41-.03-.24,.04-.64,.03,.06,.04,.15,0,.3,0,.46,0,.97,0,1.94,0,2.91,0,4.08,0,8.16,0,12.24,0,13.31,0,26.61,0,39.92,0h40.7c5.92,0,11.84,0,17.76,0,2.12,0,3.93-1.81,3.93-3.93s-1.8-3.93-3.93-3.93Z"/></svg>